<svg width="166" height="56" viewBox="0 0 166 56" fill="none" xmlns="http://www.w3.org/2000/svg">
<g clip-path="url(#clip0)">
<path d="M51.1833 0H160.467C161.934 0 163.342 0.589998 164.379 1.6402C165.417 2.69041 166 4.11479 166 5.6V50.4C166 51.8852 165.417 53.3096 164.379 54.3598C163.342 55.41 161.934 56 160.467 56H51.1833V0Z" fill="#0C8543"/>
<path d="M69.655 27.9998C71.469 27.897 73.2552 28.4859 74.6613 29.6504C75.2633 30.189 75.7401 30.8559 76.0572 31.6031C76.3744 32.3504 76.5241 33.1594 76.4956 33.9722C76.5273 34.784 76.3795 35.5927 76.0631 36.3394C75.7468 37.0861 75.2697 37.752 74.6668 38.2884C73.2539 39.4423 71.4677 40.0236 69.655 39.9194H66.5397V44.0676L68.5193 44.4526V46.6996H60.8667V44.4526L62.8338 44.0676V30.6458L60.8667 30.2664V28.0054H69.655V27.9998ZM66.5397 37.0284H69.655C70.0843 37.0614 70.5156 37.0024 70.9208 36.8552C71.326 36.7081 71.696 36.4761 72.0067 36.1744C72.5422 35.5819 72.8255 34.7998 72.7952 33.9974C72.8252 33.1799 72.5428 32.3821 72.0067 31.77C71.7002 31.4608 71.3315 31.2222 70.9257 31.0702C70.5199 30.9182 70.0865 30.8566 69.655 30.8894H66.5397V37.0284ZM86.374 46.6996C86.2718 46.4673 86.1827 46.2294 86.107 45.987C86.0316 45.7454 85.9724 45.4989 85.9299 45.2492C85.4826 45.7688 84.937 46.1925 84.3252 46.4952C83.6504 46.8218 82.9096 46.9843 82.1617 46.9698C80.992 47.0321 79.8438 46.6337 78.9579 45.8582C78.5577 45.4695 78.2446 44.9984 78.0398 44.4767C77.835 43.955 77.7434 43.3949 77.771 42.8342C77.7483 42.2384 77.8791 41.6469 78.1504 41.1177C78.4218 40.5886 78.8245 40.1399 79.319 39.8158C80.697 39.0169 82.277 38.6464 83.8618 38.7504H85.7528V37.3896C85.7699 37.1046 85.7279 36.8191 85.6295 36.5515C85.5311 36.2838 85.3785 36.04 85.1815 35.8356C84.7117 35.4359 84.106 35.2379 83.4938 35.284C83.1126 35.2782 82.7325 35.3277 82.3651 35.431C82.0828 35.5079 81.8133 35.6268 81.5655 35.7838L81.3234 37.2664H78.5318L78.5443 34.1864C79.269 33.6997 80.0511 33.307 80.8724 33.0174C81.7923 32.6932 82.7606 32.5326 83.7345 32.5428C85.2194 32.4714 86.6837 32.916 87.8846 33.8028C88.4141 34.2316 88.8348 34.7822 89.1117 35.4087C89.3887 36.0353 89.5138 36.7196 89.4768 37.405V43.145C89.4768 43.3587 89.4768 43.5599 89.4768 43.7484C89.4803 43.9288 89.4951 44.1088 89.521 44.2874L90.6498 44.4414V46.6996H86.374ZM83.1632 44.195C83.6925 44.2019 84.2152 44.0764 84.6849 43.8296C85.1083 43.6148 85.4742 43.2998 85.7514 42.9112V40.7916H83.8618C83.2169 40.7449 82.5782 40.9447 82.0718 41.3516C81.8797 41.5169 81.7256 41.7227 81.6205 41.9546C81.5153 42.1866 81.4616 42.439 81.4631 42.6942C81.4523 42.9007 81.4872 43.107 81.5652 43.2981C81.6432 43.4892 81.7624 43.6603 81.9141 43.7988C82.2683 44.0816 82.7129 44.2226 83.1632 44.195ZM92.1867 44.4512L93.9629 44.0662V35.4464L91.9958 35.0642V32.8032H97.4143L97.579 34.8318C97.853 34.1778 98.2803 33.6011 98.824 33.1518C99.3258 32.7514 99.9487 32.5383 100.588 32.5484C100.794 32.5491 100.999 32.5641 101.203 32.5932C101.386 32.6162 101.566 32.6527 101.743 32.7024L101.35 36.1184L99.8283 36.0792C99.3597 36.0611 98.895 36.1719 98.4837 36.3998C98.1284 36.6138 97.8453 36.9315 97.6716 37.3112V44.0662L99.4478 44.4512V46.6996H92.1867V44.4512ZM108.621 29.3984V32.8018H111.032V35.4352H108.621V42.5122C108.582 42.9262 108.7 43.3397 108.951 43.6686C109.067 43.7859 109.206 43.8774 109.359 43.9372C109.512 43.997 109.676 44.0238 109.839 44.0158C110.062 44.0182 110.284 44.0084 110.505 43.9864C110.695 43.9649 110.908 43.9285 111.145 43.8772L111.462 46.5876C111.059 46.7131 110.648 46.8095 110.231 46.876C109.794 46.9426 109.353 46.9749 108.911 46.9726C108.374 47.0081 107.834 46.9319 107.327 46.7486C106.82 46.5654 106.355 46.2791 105.961 45.9072C105.193 44.9604 104.823 43.7463 104.93 42.5262V35.4366H102.91V32.8032H104.93V29.3998L108.621 29.3984ZM112.643 44.4526L114.42 44.0676V35.4464L112.453 35.0614V32.8004H117.871L118.036 34.7912C118.461 34.1118 119.039 33.5442 119.723 33.135C120.406 32.7372 121.182 32.5331 121.97 32.5442C122.574 32.5103 123.179 32.6112 123.74 32.8399C124.302 33.0685 124.807 33.4192 125.219 33.8672C126.094 35.0602 126.509 36.535 126.387 38.0154V44.0648L128.163 44.4498V46.6996H121.083V44.4526L122.67 44.0676V38.0308C122.74 37.3225 122.543 36.6135 122.117 36.047C121.889 35.8383 121.623 35.6788 121.332 35.5784C121.042 35.478 120.735 35.4388 120.429 35.4632C119.971 35.4557 119.519 35.5594 119.109 35.7656C118.72 35.9666 118.385 36.2595 118.133 36.6196V44.069L119.631 44.454V46.6996H112.643V44.4526ZM135.791 46.9726C134.91 47.0127 134.03 46.8616 133.212 46.5293C132.393 46.1971 131.654 45.6914 131.045 45.0462C129.84 43.7119 129.202 41.9521 129.268 40.1462V39.6324C129.197 37.7822 129.795 35.9691 130.95 34.5336C131.502 33.8749 132.196 33.353 132.978 33.0079C133.76 32.6628 134.609 32.5037 135.462 32.5428C136.259 32.4956 137.057 32.623 137.802 32.9163C138.547 33.2096 139.22 33.6619 139.776 34.2424C140.85 35.5148 141.4 37.1563 141.312 38.8274V40.87H133.114L133.089 40.947C133.125 41.7841 133.445 42.583 133.997 43.208C134.277 43.5062 134.618 43.7398 134.995 43.8927C135.373 44.0457 135.779 44.1144 136.185 44.0942C136.874 44.112 137.563 44.0285 138.228 43.8464C138.846 43.6459 139.441 43.3813 140.004 43.0568L141.007 45.3682C140.343 45.8717 139.598 46.2566 138.805 46.5064C137.832 46.8263 136.814 46.9828 135.791 46.9698V46.9726ZM135.46 35.4394C135.146 35.4288 134.834 35.4957 134.551 35.6345C134.268 35.7733 134.023 35.9798 133.836 36.236C133.406 36.8549 133.152 37.5811 133.1 38.336L133.139 38.4004H137.682V38.0658C137.716 37.3851 137.521 36.7128 137.128 36.159C136.927 35.9135 136.671 35.72 136.381 35.5944C136.091 35.4688 135.776 35.4147 135.462 35.4366L135.46 35.4394ZM143.345 44.4554L145.121 44.0704V35.4464L143.151 35.0642V32.8032H148.57L148.735 34.8318C149.009 34.1778 149.436 33.6011 149.98 33.1518C150.482 32.7514 151.104 32.5383 151.743 32.5484C151.949 32.5491 152.155 32.5641 152.359 32.5932C152.541 32.6162 152.721 32.6527 152.898 32.7024L152.506 36.1184L150.984 36.0792C150.515 36.0611 150.051 36.1719 149.639 36.3998C149.284 36.6138 149.001 36.9315 148.827 37.3112V44.0662L150.604 44.4512V46.6996H143.342L143.345 44.4554Z" fill="white"/>
<path d="M51.875 55.3002H5.53335C2.86364 55.3002 0.691681 53.1021 0.691681 50.4002V5.60019C0.691681 2.89832 2.86364 0.700195 5.53335 0.700195H51.875V55.3002Z" fill="white"/>
<path d="M5.53333 1.4C3.24501 1.4 1.38333 3.28411 1.38333 5.6V50.4C1.38333 52.7159 3.24501 54.6 5.53333 54.6H51.1833V1.4H5.53333ZM5.53333 0H52.5667V56H5.53333C2.47736 56 0 53.4928 0 50.4V5.6C0 2.5072 2.47736 0 5.53333 0Z" fill="#0C8543"/>
</g>
<rect x="1" y="1" width="164" height="54" rx="7" stroke="white" stroke-width="2"/>
<defs>
<clipPath id="clip0">
</clipPath>
</defs>
</svg>
