<svg width="28" height="28" viewBox="0 0 28 28" fill="none" xmlns="http://www.w3.org/2000/svg">
<path d="M14.0137 5.20618L11.4324 10.437L5.65744 11.2765L9.83557 15.3507L8.84846 21.1011L14.0137 18.3859L19.1789 21.0984L18.1918 15.348L22.3699 11.2765L16.5949 10.437L14.0137 5.20618Z" fill="#FF9501" fill-opacity="0.8"/>
<path d="M24.8445 9.64688L17.9019 8.6379L14.7984 2.3461C14.7137 2.17384 14.5742 2.03439 14.4019 1.94962C13.9699 1.73634 13.4449 1.91407 13.2289 2.3461L10.1254 8.6379L3.1828 9.64688C2.9914 9.67423 2.8164 9.76446 2.68241 9.90118C2.52043 10.0677 2.43117 10.2917 2.43425 10.5239C2.43733 10.7562 2.53249 10.9777 2.69882 11.1399L7.72187 16.0371L6.53515 22.9524C6.50732 23.1132 6.52512 23.2787 6.58653 23.4299C6.64794 23.5812 6.75051 23.7122 6.8826 23.8081C7.01469 23.9041 7.17102 23.9611 7.33386 23.9727C7.4967 23.9843 7.65953 23.9501 7.8039 23.8738L14.0137 20.609L20.2234 23.8738C20.393 23.9641 20.5898 23.9942 20.7785 23.9613C21.2543 23.8793 21.5742 23.4281 21.4922 22.9524L20.3055 16.0371L25.3285 11.1399C25.4652 11.0059 25.5555 10.8309 25.5828 10.6395C25.6566 10.1609 25.323 9.71798 24.8445 9.64688ZM18.1918 15.3481L19.1789 21.0984L14.0137 18.3859L8.84843 21.1012L9.83554 15.3508L5.65741 11.2766L11.4324 10.4371L14.0137 5.20626L16.5949 10.4371L22.3699 11.2766L18.1918 15.3481Z" fill="#FF9501"/>
</svg>
